<svg width="45" height="47" viewBox="0 0 45 47" fill="none" xmlns="http://www.w3.org/2000/svg">
<path fill-rule="evenodd" clip-rule="evenodd" d="M23.6815 5.20525C23.6815 6.07005 24.4137 6.77113 25.317 6.77113C26.2211 6.77113 26.9534 6.07005 26.9534 5.20525V2.0727C26.9534 1.20712 26.2203 0.506035 25.317 0.506035C24.4137 0.506035 23.6815 1.20712 23.6815 2.0727V5.20525ZM36.8869 10.4411C36.2479 11.0528 35.2121 11.0528 34.5731 10.4411C33.9341 9.83005 33.9341 8.83757 34.5731 8.22657L36.8869 6.0113C37.5259 5.39952 38.5617 5.39952 39.2007 6.0113C39.8397 6.6223 39.8397 7.61478 39.2007 8.22657L36.8869 10.4411ZM43.3154 20.8688H40.0426C39.1394 20.8688 38.4063 20.1677 38.4063 19.3021C38.4063 18.4373 39.1394 17.737 40.0426 17.737H43.3154C44.2186 17.737 44.9509 18.4381 44.9509 19.3021C44.9509 20.1685 44.2195 20.8688 43.3154 20.8688ZM36.7715 28.7029C36.7715 26.403 35.9067 24.3006 34.4757 22.6665C34.8946 21.6216 35.1344 20.4897 35.1352 19.3029C35.1352 14.1125 30.7399 9.90447 25.3178 9.90447C22.1621 9.90447 19.3615 11.3356 17.5655 13.5501C16.3923 13.2195 15.1511 13.0378 13.8649 13.0378C6.63627 13.0378 0.775635 18.648 0.775635 25.5696C0.775635 26.6529 0.934362 27.6995 1.20436 28.7029C2.10518 32.0407 4.39609 34.8442 7.46509 36.4947C7.69091 35.5069 8.19491 34.5638 8.99673 33.7961L9.04418 33.7515C6.99873 32.6439 5.42782 30.8492 4.63009 28.7029H4.61782C4.25536 27.7206 4.04754 26.6694 4.04754 25.5696C4.04754 20.3784 8.44282 16.1704 13.8641 16.1704C18.5204 16.1704 22.4002 19.2833 23.4082 23.4475C24.4309 22.8138 25.6435 22.4362 26.9534 22.4362C30.5681 22.4362 33.498 25.2421 33.498 28.7029C33.498 31.3999 31.7135 33.6935 29.2148 34.5763C29.8595 35.4748 30.1925 36.512 30.2146 37.5585C34.0315 36.2699 36.7715 32.7974 36.7715 28.7029ZM25.317 13.0378C23.5072 13.0378 21.8692 13.7412 20.6845 14.8786C22.599 16.0035 24.1912 17.5835 25.29 19.4635C25.8333 19.375 26.3839 19.3029 26.9534 19.3029C28.6928 19.3029 30.3226 19.7408 31.7397 20.4991C31.8183 20.1121 31.8616 19.7126 31.8616 19.3029C31.8616 15.8429 28.9317 13.0378 25.317 13.0378ZM13.7487 10.4411L11.4349 8.22657C10.7959 7.61478 10.7959 6.6223 11.4349 6.0113C12.0731 5.39952 13.1097 5.39952 13.7487 6.0113L16.0625 8.22657C16.7007 8.83757 16.7007 9.83005 16.0625 10.4411C15.4235 11.0528 14.3869 11.0528 13.7487 10.4411ZM14.7813 36.0114L13.0459 34.35L11.3105 36.0114C10.3525 36.9295 10.3525 38.4162 11.3105 39.3343C12.2695 40.2524 13.8232 40.2524 14.7813 39.3343C15.7402 38.4162 15.7402 36.9295 14.7813 36.0114ZM18.7724 40.6151L20.5077 42.2765C21.4666 43.1946 21.4666 44.6829 20.5077 45.5994C19.5496 46.5175 17.9959 46.5175 17.037 45.5994C16.0789 44.6829 16.0789 43.1946 17.037 42.2765L18.7724 40.6151ZM26.2342 36.0114L24.4988 34.35L22.7643 36.0114C21.8054 36.9295 21.8054 38.4162 22.7643 39.3343C23.7224 40.2524 25.2761 40.2524 26.2342 39.3343C27.1931 38.4162 27.1931 36.9295 26.2342 36.0114Z" fill="#65AED5"/>
</svg>
