<svg width="45" height="40" viewBox="0 0 45 40" fill="none" xmlns="http://www.w3.org/2000/svg">
<path fill-rule="evenodd" clip-rule="evenodd" d="M25.317 7.07154C24.4137 7.07154 23.6815 6.33927 23.6815 5.436V2.16409C23.6815 1.26 24.4145 0.527725 25.317 0.527725C26.2211 0.527725 26.9534 1.26 26.9534 2.16409V5.436C26.9534 6.34009 26.2219 7.07154 25.317 7.07154ZM36.8869 10.9055C36.2479 11.5445 35.2121 11.5445 34.5731 10.9055C33.9341 10.2674 33.9341 9.23073 34.5731 8.59254L36.8869 6.27873C37.5259 5.63973 38.5617 5.63973 39.2007 6.27873C39.8397 6.91691 39.8397 7.95354 39.2007 8.59254L36.8869 10.9055ZM43.3154 21.7972H40.0426C39.1394 21.7972 38.4063 21.0649 38.4063 20.1608C38.4063 19.2575 39.1394 18.5261 40.0426 18.5261H43.3154C44.2186 18.5261 44.9517 19.2584 44.9517 20.1608C44.9517 21.0649 44.2186 21.7972 43.3154 21.7972ZM36.7715 29.979C36.7715 27.5776 35.9067 25.3816 34.4757 23.6749C34.8946 22.5835 35.1344 21.4004 35.1352 20.1608C35.1352 14.7404 30.7399 10.3443 25.3178 10.3443C22.1621 10.3443 19.3615 11.8391 17.5655 14.1521C16.3931 13.8068 15.1511 13.617 13.8649 13.617C6.63627 13.617 0.775635 19.4768 0.775635 26.7063C0.775635 33.9357 6.63627 39.7955 13.8649 39.7955H26.9542C32.3763 39.7955 36.7715 35.3995 36.7715 29.979ZM4.04754 26.7063C4.04754 32.1284 8.442 36.5228 13.8641 36.5228H26.9534C30.5681 36.5228 33.498 33.5921 33.498 29.979C33.498 26.3643 30.5681 23.4335 26.9534 23.4335C25.6443 23.4335 24.4309 23.8279 23.4082 24.4898C22.401 20.1404 18.5204 16.8897 13.8641 16.8897C8.442 16.8897 4.04754 21.2842 4.04754 26.7063ZM20.6845 15.5389C21.8684 14.3517 23.5072 13.617 25.317 13.617C28.9317 13.617 31.8625 16.5477 31.8625 20.1608C31.8625 20.5887 31.8183 21.006 31.7397 21.4102C30.3235 20.6182 28.692 20.1608 26.9534 20.1608C26.3839 20.1608 25.8333 20.2361 25.29 20.3285C24.1904 18.3641 22.599 16.7138 20.6845 15.5389ZM11.4349 8.59254L13.7479 10.9055C14.3869 11.5445 15.4235 11.5445 16.0617 10.9055C16.7007 10.2674 16.7007 9.23073 16.0617 8.59254L13.7479 6.27873C13.1097 5.63973 12.0731 5.63973 11.4349 6.27873C10.7959 6.91691 10.7959 7.95354 11.4349 8.59254Z" fill="#65AED5"/>
</svg>
