<svg width="36" height="35" viewBox="0 0 36 35" fill="none" xmlns="http://www.w3.org/2000/svg">
<path fill-rule="evenodd" clip-rule="evenodd" d="M25.3121 25.3874H26.181C31.6031 25.3874 35.9992 21.2077 35.9992 16.0533C35.9992 10.899 31.6039 6.72155 26.1818 6.72155C25.6124 6.72155 25.0617 6.79233 24.5184 6.881C22.2799 3.07611 18.0049 0.500107 13.0925 0.500107C5.8639 0.500107 0.00326538 6.07211 0.00326538 12.9438C0.00326538 18.5313 3.87736 23.2579 9.2119 24.8298L10.3156 21.8921C6.24763 20.7519 3.27599 17.1803 3.27599 12.9446C3.27599 7.78944 7.67127 3.61122 13.0925 3.61122C17.7488 3.61122 21.6286 6.70211 22.6366 10.8368C23.6594 10.2068 24.8719 9.83344 26.1818 9.83344C29.7965 9.83344 32.7264 12.6179 32.7264 16.0541C32.7264 18.8036 30.8479 21.1338 28.2453 21.9559L25.3121 25.3874ZM24.5446 14.4986H16.3644L12.2735 25.3874H17.6735L14.7281 34.7192L25.3628 22.2763H19.6364L24.5446 14.4986Z" fill="#65AED5"/>
</svg>
