<svg width="38" height="35" viewBox="0 0 38 35" fill="none" xmlns="http://www.w3.org/2000/svg">
<path fill-rule="evenodd" clip-rule="evenodd" d="M26.1018 7.03738C26.6625 6.9475 27.2308 6.87431 27.8185 6.87431C33.4147 6.87431 37.951 11.1475 37.9527 16.419C37.9527 20.5768 35.1247 24.1031 31.1853 25.4116C31.1617 24.3489 30.8188 23.2949 30.1534 22.3833C32.7315 21.4868 34.5741 19.1577 34.5741 16.419C34.5741 12.9047 31.5501 10.0561 27.8194 10.0561C26.4683 10.0561 25.216 10.4387 24.1604 11.0831C23.12 6.85443 19.1157 3.69329 14.3099 3.69329C8.71466 3.69329 4.1783 7.96647 4.1783 13.2372C4.1783 16.8024 6.25733 19.9062 9.33448 21.5457L9.28635 21.591C8.45795 22.3706 7.93777 23.3275 7.7047 24.3314C3.58635 22.1518 0.799683 18.0035 0.799683 13.2372C0.799683 6.20931 6.84844 0.512268 14.3091 0.512268C19.3792 0.512268 23.7914 3.14602 26.1018 7.03738ZM11.6736 23.8406L13.4647 22.1534L15.2557 23.8406C16.2454 24.7728 16.2454 26.2826 15.2557 27.2149C14.2669 28.1472 12.6633 28.1472 11.6736 27.2149C10.6847 26.2826 10.6847 24.7728 11.6736 23.8406ZM19.3758 28.5154L17.5847 30.2026C16.595 31.1349 16.595 32.6462 17.5847 33.5769C18.5735 34.5092 20.1771 34.5092 21.166 33.5769C22.1557 32.6462 22.1557 31.1349 21.166 30.2026L19.3758 28.5154ZM23.495 23.8406L25.286 22.1534L27.0771 23.8406C28.0659 24.7728 28.0659 26.2826 27.0771 27.2149C26.0874 28.1472 24.4838 28.1472 23.495 27.2149C22.5053 26.2826 22.5053 24.7728 23.495 23.8406Z" fill="#65AED5"/>
</svg>
