<svg width="12" height="16" viewBox="0 0 12 16" fill="none" xmlns="http://www.w3.org/2000/svg">
<path fill-rule="evenodd" clip-rule="evenodd" d="M6 7.30401C6.336 7.30401 6.648 7.22001 6.936 7.05201C7.224 6.884 7.452 6.65901 7.62 6.37701C7.788 6.095 7.872 5.78601 7.872 5.45001C7.872 5.114 7.788 4.80201 7.62 4.51401C7.452 4.226 7.224 3.99801 6.936 3.83001C6.648 3.662 6.336 3.57801 6 3.57801C5.664 3.57801 5.355 3.662 5.073 3.83001C4.791 3.99801 4.566 4.226 4.398 4.51401C4.23 4.80201 4.146 5.114 4.146 5.45001C4.146 5.96601 4.326 6.404 4.686 6.76401C5.046 7.12401 5.484 7.30401 6 7.30401ZM6 0.212006C6.96001 0.212006 7.842 0.446003 8.646 0.914006C9.438 1.38201 10.068 2.012 10.536 2.80401C11.004 3.60801 11.238 4.49 11.238 5.45001C11.238 6.18201 11.058 7.022 10.698 7.97001C10.386 8.77401 9.954 9.644 9.402 10.58C8.946 11.324 8.424 12.098 7.836 12.902C7.428 13.466 6.996 14.018 6.54 14.558L6 15.188L5.46 14.558C5.004 14.018 4.572 13.466 4.164 12.902C3.576 12.098 3.054 11.324 2.598 10.58C2.046 9.644 1.614 8.77401 1.302 7.97001C0.941999 7.022 0.762001 6.18201 0.762001 5.45001C0.762001 4.49 0.995999 3.60801 1.464 2.80401C1.932 2.012 2.562 1.38201 3.354 0.914006C4.158 0.446003 5.04 0.212006 6 0.212006Z" fill="white"/>
</svg>
